<svg width="32" height="28" viewBox="0 0 32 28" fill="none" xmlns="http://www.w3.org/2000/svg">
  <rect x="4" y="4" width="8" height="8" fill="#FF8CA0"/>
  <rect x="20" y="4" width="8" height="8" fill="#FF8CA0"/>
  <rect x="8" y="8" width="16" height="8" fill="#FF8CA0"/>
  <rect x="12" y="16" width="8" height="8" fill="#FF8CA0"/>
  <rect x="4" y="4" width="8" height="4" fill="#FFD2D9"/>
  <rect x="20" y="4" width="8" height="4" fill="#FFD2D9"/>
  <rect x="8" y="8" width="4" height="4" fill="#FFD2D9"/>
  <rect x="0" y="0" width="4" height="4" fill="#6F3751"/>
  <rect x="12" y="0" width="8" height="4" fill="#6F3751"/>
  <rect x="28" y="0" width="4" height="4" fill="#6F3751"/>
  <rect x="0" y="4" width="4" height="8" fill="#6F3751"/>
  <rect x="28" y="4" width="4" height="8" fill="#6F3751"/>
  <rect x="4" y="12" width="4" height="4" fill="#6F3751"/>
  <rect x="24" y="12" width="4" height="4" fill="#6F3751"/>
  <rect x="8" y="16" width="4" height="4" fill="#6F3751"/>
  <rect x="20" y="16" width="4" height="4" fill="#6F3751"/>
  <rect x="12" y="24" width="8" height="4" fill="#6F3751"/>
</svg>
